<?xml version="1.0" standalone="no"?>
<!DOCTYPE svg PUBLIC "-//W3C//DTD SVG 20010904//EN"
 "http://www.w3.org/TR/2001/REC-SVG-20010904/DTD/svg10.dtd">
<svg version="1.0" xmlns="http://www.w3.org/2000/svg"
 width="302.000000pt" height="152.000000pt" viewBox="0 0 302.000000 152.000000"
 preserveAspectRatio="xMidYMid meet">

<g transform="translate(0.000000,152.000000) scale(0.100000,-0.100000)"
fill="#000000" stroke="none">
<path d="M316 1180 l61 -29 47 -286 c26 -158 46 -288 44 -290 -2 -2 -42 -22
-88 -44 -49 -22 -76 -40 -64 -40 12 -1 127 11 255 26 261 30 282 31 494 20
l150 -9 -37 26 c-27 19 -40 38 -48 69 -6 23 -18 64 -26 91 -8 27 -14 51 -14
53 0 2 36 3 79 3 l79 0 46 -62 c26 -35 46 -73 46 -87 0 -53 11 -71 41 -71 36
0 53 28 39 64 -7 20 -16 26 -40 26 -38 0 -41 6 -80 185 -41 185 -37 176 -65
141 -28 -35 -127 -80 -136 -63 -9 16 -32 128 -27 132 1 2 62 6 134 10 l131 7
31 -53 31 -54 -45 -3 -45 -3 3 -47 c2 -39 7 -48 24 -50 24 -3 34 -35 34 -109
l0 -44 38 3 37 3 3 73 c3 68 4 72 26 72 18 0 25 7 30 31 13 64 10 69 -39 69
-25 0 -45 3 -45 7 0 13 -42 248 -45 251 -1 1 -103 -7 -226 -19 -185 -18 -234
-19 -284 -10 -51 10 -528 42 -590 40 -11 0 6 -13 41 -29z m394 -105 c44 -40
16 -82 -67 -100 -31 -6 -33 -5 -33 22 0 15 -3 46 -7 67 l-6 39 47 -5 c26 -3
56 -14 66 -23z m-2 -257 c22 -22 13 -53 -25 -89 -42 -39 -83 -69 -96 -69 -15
0 4 144 21 158 20 15 84 16 100 0z m692 -228 c0 -11 -4 -20 -10 -20 -5 0 -10
9 -10 20 0 11 5 20 10 20 6 0 10 -9 10 -20z"/>
<path d="M1533 943 c-9 -7 -11 -41 -6 -131 l6 -122 44 0 c42 0 43 1 43 32 l0
32 28 -33 c25 -30 29 -32 54 -21 l27 13 -21 28 -22 29 22 23 c32 34 30 96 -3
127 -21 20 -39 25 -93 28 -37 1 -72 -1 -79 -5z m125 -117 c4 -19 -16 -39 -30
-30 -4 3 -8 16 -8 30 0 19 5 25 17 22 10 -2 19 -12 21 -22z"/>
<path d="M2055 940 c-45 -18 -69 -58 -69 -114 -1 -84 31 -127 106 -141 26 -5
39 -2 51 10 24 23 22 44 -3 38 -26 -7 -60 23 -60 52 0 27 29 55 58 55 20 0 22
5 22 55 l0 55 -42 -1 c-24 0 -52 -4 -63 -9z"/>
<path d="M2308 903 l-16 -48 -1 43 -1 42 -56 0 -57 0 7 -46 c3 -26 6 -82 6
-125 l0 -79 45 0 c44 0 45 1 45 33 l0 32 21 -32 c12 -18 25 -33 31 -33 9 0 47
18 57 26 3 3 -8 18 -24 34 l-29 30 37 75 c20 41 33 76 29 78 -4 3 -23 7 -43
11 -35 6 -36 6 -51 -41z"/>
<path d="M2453 930 c-43 -40 -39 -81 16 -137 33 -34 33 -63 0 -63 -22 0 -24
-9 -6 -34 10 -14 21 -17 45 -12 54 12 61 41 37 137 -6 22 -3 27 15 32 18 5 21
11 16 29 -3 13 -6 33 -6 46 0 20 -5 22 -48 22 -34 0 -54 -6 -69 -20z"/>
<path d="M1753 851 c7 -113 23 -147 78 -161 22 -6 60 -8 85 -4 l44 6 0 124 0
124 -35 0 -35 0 0 -110 c0 -60 -4 -110 -8 -110 -24 0 -32 30 -32 122 l0 98
-51 0 -52 0 6 -89z"/>
<path d="M1440 594 c0 -38 3 -45 18 -42 12 2 18 15 20 46 3 37 1 42 -17 42
-18 0 -21 -6 -21 -46z"/>
<path d="M1490 616 c0 -14 5 -28 11 -31 6 -4 8 -14 5 -22 -4 -10 0 -13 12 -11
13 2 17 14 19 46 1 38 -1 42 -23 42 -19 0 -24 -5 -24 -24z"/>
<path d="M1550 630 c0 -5 4 -10 9 -10 5 0 12 -16 15 -35 8 -40 26 -47 26 -11
0 14 7 31 15 40 23 22 19 26 -25 26 -22 0 -40 -4 -40 -10z"/>
<path d="M1640 594 c0 -44 1 -46 25 -40 14 4 25 2 25 -4 0 -5 5 -10 11 -10 5
0 9 8 7 18 -1 9 1 23 5 30 17 26 -3 52 -39 52 -34 0 -34 0 -34 -46z"/>
<path d="M1730 595 c0 -38 3 -45 20 -45 17 0 20 7 20 45 0 38 -3 45 -20 45
-17 0 -20 -7 -20 -45z"/>
<path d="M1780 595 c0 -44 0 -45 34 -45 31 0 34 3 39 37 8 47 3 53 -39 53 -34
0 -34 0 -34 -45z m47 3 c-3 -8 -6 -5 -6 6 -1 11 2 17 5 13 3 -3 4 -12 1 -19z"/>
<path d="M1870 611 c0 -49 9 -61 46 -61 34 0 34 1 34 45 0 33 -4 45 -15 45
-11 0 -15 -12 -16 -42 0 -38 -1 -40 -10 -19 -5 13 -7 32 -4 42 5 14 1 19 -14
19 -17 0 -21 -6 -21 -29z"/>
<path d="M1960 611 c0 -39 9 -61 26 -61 10 0 14 13 14 45 0 38 -3 45 -20 45
-15 0 -20 -7 -20 -29z"/>
<path d="M2010 618 c0 -50 11 -68 41 -68 36 0 53 28 39 64 -8 21 -16 26 -45
26 -30 0 -35 -3 -35 -22z m60 -28 c0 -11 -4 -20 -10 -20 -5 0 -10 9 -10 20 0
11 5 20 10 20 6 0 10 -9 10 -20z"/>
<path d="M2117 633 c-9 -8 -9 -46 -1 -67 7 -19 45 -21 62 -4 28 28 7 78 -33
78 -12 0 -25 -3 -28 -7z m43 -43 c0 -11 -4 -20 -10 -20 -5 0 -10 9 -10 20 0
11 5 20 10 20 6 0 10 -9 10 -20z"/>
<path d="M2200 594 c0 -41 2 -45 23 -43 12 2 28 0 35 -5 18 -11 29 1 15 15 -8
8 -9 16 -1 29 18 29 3 50 -37 50 -35 0 -35 0 -35 -46z m47 4 c-3 -8 -6 -5 -6
6 -1 11 2 17 5 13 3 -3 4 -12 1 -19z"/>
<path d="M2300 626 c0 -7 -3 -28 -6 -45 -6 -30 -6 -31 30 -31 l37 0 -7 38 c-4
20 -9 40 -11 45 -7 13 -43 8 -43 -7z"/>
</g>
</svg>
